<?xml version="1.0" encoding="utf-8"?>
<!-- Generator: Adobe Illustrator 27.5.0, SVG Export Plug-In . SVG Version: 6.00 Build 0)  -->
<svg version="1.1" id="Слой_1" xmlns="http://www.w3.org/2000/svg" xmlns:xlink="http://www.w3.org/1999/xlink" x="0px" y="0px"
	 viewBox="0 0 300 80" style="enable-background:new 0 0 300 80;" xml:space="preserve">
<style type="text/css">
	.st0{fill:#008CC9;}
	.st1{fill:#FF5087;}
	.st2{fill:#00C1CA;}
	.st3{fill:#FFFFFF;}
	.st4{fill:#FFAF00;}
	.st5{fill:#214F6C;}
	.st6{fill:none;}
</style>
<g>
	<g>
		<path class="st0" d="M97.11,45.88H84.99V23.92c0-2.39,0.58-4.29,1.75-5.68c1.17-1.39,2.75-2.09,4.76-2.09
			c1.12,0,2.21,0.08,3.26,0.25s1.83,0.33,2.35,0.5V45.88z M84.99,42.29h12.26v24.38c-0.51,0.17-1.31,0.33-2.38,0.5
			c-1.07,0.17-2.17,0.25-3.29,0.25c-2.43,0-4.13-0.52-5.11-1.54c-0.98-1.03-1.47-2.83-1.47-5.39V42.29z M91.37,48.8V37.28h21.08
			c0.33,0.61,0.63,1.41,0.91,2.38c0.28,0.97,0.42,2.05,0.42,3.21c0,2.06-0.39,3.56-1.16,4.51c-0.77,0.95-1.81,1.42-3.12,1.42H91.37z
			 M91.51,27.84V16.15h23.33c0.33,0.61,0.62,1.42,0.88,2.42c0.26,1,0.39,2.09,0.39,3.26c0,2.06-0.39,3.58-1.16,4.55
			c-0.77,0.97-1.81,1.46-3.12,1.46H91.51z"/>
		<path class="st0" d="M135.85,68.09c-4.9,0-8.84-1.13-11.8-3.38c-2.97-2.25-4.45-5.67-4.45-10.23c0-3.84,0.97-6.79,2.91-8.85
			c1.94-2.06,4.89-3.34,8.86-3.84l9.18-1.17v-0.58c0-1.61-0.6-2.77-1.79-3.47c-1.19-0.7-2.91-1.04-5.15-1.04
			c-1.73,0-3.44,0.22-5.15,0.67c-1.71,0.45-3.23,1-4.59,1.67c-0.61-0.5-1.12-1.27-1.54-2.3s-0.63-2.1-0.63-3.22
			c0-2.67,1.19-4.56,3.57-5.68c1.35-0.61,2.95-1.06,4.8-1.34c1.84-0.28,3.58-0.42,5.22-0.42c5.09,0,9.16,1.24,12.22,3.72
			c3.06,2.48,4.59,6.33,4.59,11.57v18.71c0,1.45-0.34,2.63-1.02,3.55c-0.68,0.92-1.48,1.71-2.42,2.38c-1.5,1.06-3.32,1.87-5.46,2.42
			C141.06,67.81,138.6,68.09,135.85,68.09z M135.85,57.74c0.79,0,1.67-0.1,2.63-0.29c0.96-0.19,1.67-0.46,2.14-0.79v-6.68l-5.04,0.5
			c-1.31,0.11-2.38,0.45-3.22,1c-0.84,0.56-1.26,1.39-1.26,2.5c0,1.11,0.36,2.02,1.09,2.71C132.9,57.39,134.12,57.74,135.85,57.74z"
			/>
		<path class="st0" d="M188.11,54.65c0,4.23-1.34,7.54-4.03,9.94c-2.69,2.39-6.6,3.59-11.73,3.59c-3.97,0-7.23-0.68-9.77-2.05
			c-2.55-1.36-3.82-3.49-3.82-6.39c0-1.34,0.23-2.48,0.7-3.42c0.47-0.95,1.03-1.7,1.68-2.25c1.35,0.89,2.91,1.68,4.66,2.38
			c1.75,0.7,3.77,1.04,6.06,1.04c2.99,0,4.48-0.92,4.48-2.76c0-0.78-0.28-1.39-0.84-1.84c-0.56-0.44-1.5-0.81-2.8-1.08l-2.1-0.5
			c-4.02-0.95-7.03-2.45-9.04-4.51s-3.01-4.96-3.01-8.69c0-4.18,1.42-7.43,4.27-9.77c2.85-2.34,6.56-3.51,11.14-3.51
			c2.29,0,4.38,0.26,6.27,0.79c1.89,0.53,3.4,1.37,4.52,2.51c1.12,1.14,1.68,2.6,1.68,4.38c0,1.23-0.2,2.31-0.6,3.26
			c-0.4,0.95-0.9,1.73-1.51,2.34c-0.51-0.39-1.32-0.78-2.42-1.17c-1.1-0.39-2.28-0.72-3.54-1c-1.26-0.28-2.38-0.42-3.36-0.42
			c-1.54,0-2.73,0.21-3.57,0.63c-0.84,0.42-1.26,1.07-1.26,1.96c0,0.61,0.23,1.11,0.7,1.5c0.47,0.39,1.35,0.75,2.66,1.09l2.17,0.58
			c4.48,1.22,7.67,2.91,9.56,5.05C187.16,48.48,188.11,51.25,188.11,54.65z"/>
		<path class="st0" d="M205.76,46.71h-11.77V16.73c0.51-0.17,1.25-0.35,2.21-0.54c0.96-0.19,1.97-0.29,3.05-0.29
			c2.29,0,3.95,0.47,4.97,1.42c1.03,0.95,1.54,2.7,1.54,5.26V46.71z M193.99,44.71h11.77v8.1c0,1.39,0.39,2.41,1.16,3.05
			c0.77,0.64,1.86,0.96,3.26,0.96c0.7,0,1.42-0.07,2.17-0.21c0.75-0.14,1.4-0.32,1.96-0.54c0.42,0.56,0.78,1.23,1.09,2
			c0.3,0.78,0.46,1.7,0.46,2.76c0,2.06-0.67,3.77-2,5.14c-1.33,1.36-3.68,2.05-7.04,2.05c-4.11,0-7.27-1.11-9.49-3.34
			c-2.22-2.23-3.33-5.85-3.33-10.86V44.71z M201.69,37.95V27.09h13.24c0.28,0.56,0.55,1.31,0.81,2.25c0.26,0.95,0.38,1.98,0.38,3.09
			c0,1.95-0.36,3.35-1.08,4.22c-0.72,0.86-1.69,1.29-2.91,1.29H201.69z"/>
		<path class="st0" d="M234.83,49.14h-12.26V15.98c0.56-0.11,1.39-0.26,2.49-0.46c1.1-0.19,2.16-0.29,3.19-0.29
			c2.33,0,4.02,0.47,5.04,1.42c1.03,0.95,1.54,2.79,1.54,5.51V49.14z M222.57,29.84h12.26v36.83c-0.51,0.17-1.31,0.33-2.38,0.5
			c-1.08,0.17-2.17,0.25-3.29,0.25c-2.43,0-4.13-0.52-5.11-1.54s-1.47-2.83-1.47-5.39V29.84z"/>
		<path class="st0" d="M280.64,56.23c-1.96,3.95-4.71,6.92-8.23,8.89c-3.53,1.98-7.65,2.96-12.36,2.96c-1.59,0-3.56-0.14-5.92-0.42
			c-2.36-0.28-4.47-0.83-6.34-1.67c-2.57-1.17-3.85-3.2-3.85-6.1v-39c0-1.17,0.28-2.07,0.84-2.71c0.56-0.64,1.28-1.15,2.17-1.54
			c2.01-0.78,4.13-1.29,6.38-1.54c2.24-0.25,4.25-0.38,6.02-0.38c4.86,0,9.09,0.96,12.71,2.88s6.45,4.84,8.48,8.77
			s3.05,8.92,3.05,14.99C283.58,47.33,282.6,52.28,280.64,56.23z M269.64,33.27c-0.89-2.23-2.14-3.91-3.75-5.05
			c-1.61-1.14-3.51-1.71-5.71-1.71c-0.65,0-1.32,0.03-2,0.08c-0.68,0.06-1.37,0.14-2.07,0.25V55.9c0.51,0.11,1.16,0.21,1.93,0.29
			c0.77,0.08,1.46,0.12,2.07,0.12c3.18,0,5.78-1.22,7.81-3.67c2.03-2.45,3.05-6.12,3.05-11.02
			C270.97,38.28,270.53,35.5,269.64,33.27z"/>
	</g>
</g>
<g>
	<g>
		<path class="st1" d="M61.67,39c-0.56-2.43-1.57-4.69-3.68-6.13c-1.96-1.34-4.38-2.02-6.71-2.28c-4.98-0.56-10.11,1.1-14.09,4.07
			c-2.24,1.67-4.16,3.67-5.83,5.91c-1.61,2.14-3.44,4.76-3.98,7.43c-0.16,0.8,0.9,1.66,1.53,0.89c1.38-1.7,2.31-3.77,3.54-5.58
			c1.3-1.91,2.81-3.68,4.54-5.22c3.49-3.1,8.01-5.06,12.72-4.95c2.26,0.06,4.63,0.61,6.56,1.84c2.1,1.33,2.79,4,3.01,6.35
			c0.5,5.37-2.28,9.66-4.89,14.08c-2.68,4.54-5.05,9.97-2.92,15.22c0.7,1.72,3.53,0.97,2.82-0.78c-2.23-5.49,1.3-10.75,3.99-15.35
			C61.07,49.7,62.96,44.62,61.67,39z"/>
		<path class="st1" d="M50.68,56.58c2.42-4.03,6.38-7.88,6-12.97c-0.32-4.26-3.52-7.88-7.87-8.12c-4.57-0.25-8.92,2.32-11.97,5.54
			c-1.89,2-3.41,4.35-4.78,6.73c-1.35,2.35-2.79,4.98-2.66,7.76c0.03,0.67,1.03,1.06,1.36,0.37c1.95-4.06,3.76-8.06,6.68-11.55
			c2.69-3.22,6.44-6.18,10.86-6.13c4.56,0.05,6.29,4.62,4.95,8.45c-1.46,4.17-5.05,7.2-6.62,11.34c-0.86,2.25-0.96,4.78-0.92,7.17
			c0.03,2.2,0.08,4.99,1.95,6.43c0.53,0.41,1.5-0.01,1.61-0.66c0.19-1.16-0.13-2.12-0.32-3.26c-0.22-1.31-0.23-2.66-0.19-3.99
			C48.82,61.09,49.32,58.84,50.68,56.58z"/>
		<path class="st1" d="M49.73,43.68c-3.03-3.55-8.5,1-10.62,3.41c-1.51,1.72-2.75,3.68-3.7,5.76c-0.51,1.1-0.93,2.24-1.31,3.39
			c-0.38,1.14-0.9,2.49-0.76,3.69c0.08,0.64,0.84,1.11,1.36,0.56c1.34-1.42,1.87-3.85,2.7-5.6c0.82-1.73,1.7-3.44,2.87-4.96
			c1.18-1.55,2.63-2.94,4.33-3.92c0.69-0.4,1.83-1.11,2.66-0.8c1.12,0.41,0.53,1.9,0.12,2.58c-1,1.68-2.47,3.1-3.63,4.69
			c-1.16,1.59-2.08,3.3-2.67,5.18c-1.19,3.84-0.99,7.92-0.45,11.84c0.21,1.54,2.93,1.19,2.74-0.37c-0.57-4.79-0.72-9.82,1.96-14.06
			C47.17,52.15,52.99,47.51,49.73,43.68z"/>
		<path class="st1" d="M66.24,36.29c-0.76-2.47-1.81-5.06-3.69-6.9c-1.79-1.75-4.15-2.97-6.52-3.75c-4.88-1.6-10.31-1.21-15.01,0.79
			c-4.73,2.01-9.99,6-11.84,10.96c-0.29,0.77,0.8,1.31,1.33,0.78c1.62-1.62,2.96-3.48,4.65-5.04c1.67-1.54,3.5-2.87,5.53-3.89
			c4.24-2.14,9.22-2.75,13.81-1.47c2.34,0.65,4.75,1.79,6.45,3.56c1.77,1.84,2.65,4.59,3.24,7.02c1.16,4.77,0.81,9.98-1.15,14.5
			c-1.2,2.78-2.83,5.33-3.79,8.22c-0.84,2.56-1.37,5.8-0.02,8.27c0.73,1.33,3.05,0.79,2.94-0.8c-0.1-1.4-0.36-2.72-0.17-4.13
			c0.2-1.43,0.68-2.84,1.25-4.17c1.14-2.65,2.45-5.23,3.19-8.03C67.81,46.99,67.83,41.45,66.24,36.29z"/>
		<path class="st1" d="M38.75,62.91c0.06-1.1,0.32-2.19,0.29-3.3c-0.02-0.77-1.02-1.03-1.43-0.39c-1.13,1.76-1.9,5.45-0.48,7.19
			c0.48,0.58,1.39,0.2,1.58-0.42C39.03,65.02,38.69,63.95,38.75,62.91z"/>
		<path class="st1" d="M66.31,25.87c-1.8-2.21-5.08-3.73-7.72-4.62c-3.32-1.13-6.91-1.37-10.38-1.01c-3.22,0.33-6.46,1.01-9.49,2.18
			c-2.5,0.96-5.86,2.41-7.15,4.93c-0.39,0.77,0.39,1.54,1.16,1.16c1.13-0.57,2.11-1.46,3.19-2.12c1.22-0.74,2.52-1.34,3.87-1.81
			c2.78-0.98,5.75-1.6,8.68-1.84c3.02-0.24,6.08-0.05,8.96,0.94c1.35,0.46,2.64,1.11,3.85,1.87c1.19,0.76,2.13,1.78,3.27,2.59
			C66,29.17,67.26,27.05,66.31,25.87z"/>
		<path class="st1" d="M61.65,18.66c-0.92-1.93-4.58-2.47-6.48-2.76c-2.37-0.37-4.78-0.49-7.18-0.32c-2.38,0.17-4.77,0.57-7.04,1.3
			c-1.18,0.38-2.31,0.9-3.4,1.48c-0.9,0.48-1.95,0.86-2.21,1.92c-0.08,0.33,0.11,0.68,0.44,0.78c0.97,0.28,1.73-0.32,2.62-0.68
			c1.05-0.42,2.13-0.76,3.22-1.08c2.08-0.62,4.21-1.02,6.38-1.15c2.16-0.13,4.34-0.05,6.48,0.29c1.11,0.18,2.23,0.43,3.29,0.81
			c1,0.36,1.87,1.07,2.96,1.04C61.58,20.26,62,19.4,61.65,18.66z"/>
		<path class="st1" d="M57.02,12.39c-2.62-0.8-5.37-1.14-8.11-0.95c-2.48,0.18-5.58,0.63-7.62,2.15c-0.84,0.62-0.36,1.9,0.71,1.69
			c2.43-0.46,4.63-1.41,7.15-1.55c2.47-0.14,4.88,0.19,7.24,0.92C57.84,15.12,58.47,12.83,57.02,12.39z"/>
	</g>
	<g>
		<path class="st0" d="M49.73,43.68c-3.03-3.55-8.5,1-10.62,3.41c-1.51,1.72-2.75,3.68-3.7,5.76c-0.51,1.1-0.93,2.24-1.31,3.39
			c-0.38,1.14-0.9,2.49-0.76,3.69c0.08,0.64,0.84,1.11,1.36,0.56c1.34-1.42,1.87-3.85,2.7-5.6c0.82-1.73,1.7-3.44,2.87-4.96
			c1.18-1.55,2.63-2.94,4.33-3.92c0.69-0.4,1.83-1.11,2.66-0.8c1.12,0.41,0.53,1.9,0.12,2.58c-1,1.68-2.47,3.1-3.63,4.69
			c-1.16,1.59-2.08,3.3-2.67,5.18c-1.19,3.84-0.99,7.92-0.45,11.84c0.21,1.54,2.93,1.19,2.74-0.37c-0.57-4.79-0.72-9.82,1.96-14.06
			C47.17,52.15,52.99,47.51,49.73,43.68z"/>
		<path class="st0" d="M59.26,41.34c0.5,5.37-2.28,9.66-4.89,14.08c-2.68,4.54-5.05,9.97-2.92,15.22c0.7,1.72,3.53,0.97,2.82-0.78
			c-2.23-5.49,1.3-10.75,3.99-15.35c2.81-4.81,4.7-9.89,3.41-15.51c-0.25-1.11-0.61-2.19-1.12-3.16h-3.29
			C58.59,37.28,59.08,39.41,59.26,41.34z"/>
		<path class="st0" d="M39.04,59.62c-0.02-0.77-1.02-1.03-1.43-0.39c-1.13,1.76-1.9,5.45-0.48,7.19c0.48,0.58,1.39,0.2,1.58-0.42
			c0.31-0.99-0.03-2.06,0.03-3.09C38.81,61.81,39.07,60.72,39.04,59.62z"/>
		<path class="st0" d="M50.68,56.58c2.42-4.03,6.38-7.88,6-12.97c-0.27-3.61-2.6-6.75-5.95-7.77h-5.43
			c-3.24,0.79-6.21,2.82-8.46,5.2c-1.89,2-3.41,4.35-4.78,6.73c-1.35,2.35-2.79,4.98-2.66,7.76c0.03,0.67,1.03,1.06,1.36,0.37
			c1.95-4.06,3.76-8.06,6.68-11.55c2.69-3.22,6.44-6.18,10.86-6.13c4.56,0.05,6.29,4.62,4.95,8.45c-1.46,4.17-5.05,7.2-6.62,11.34
			c-0.86,2.25-0.96,4.78-0.92,7.17c0.03,2.2,0.08,4.99,1.95,6.43c0.53,0.41,1.5-0.01,1.61-0.66c0.19-1.16-0.13-2.12-0.32-3.26
			c-0.22-1.31-0.23-2.66-0.19-3.99C48.82,61.09,49.32,58.84,50.68,56.58z"/>
		<path class="st2" d="M30.51,38.17c0.75-0.75,1.43-1.54,2.12-2.34h-2.75c-0.27,0.51-0.51,1.03-0.71,1.56
			C28.89,38.17,29.97,38.7,30.51,38.17z"/>
		<path class="st0" d="M64.19,38.35c1.16,4.77,0.81,9.98-1.15,14.5c-1.2,2.78-2.83,5.33-3.79,8.22c-0.84,2.56-1.37,5.8-0.02,8.27
			c0.73,1.33,3.05,0.79,2.94-0.8c-0.1-1.4-0.36-2.72-0.17-4.13c0.2-1.43,0.68-2.84,1.25-4.17c1.14-2.65,2.45-5.23,3.19-8.03
			c1.37-5.22,1.38-10.75-0.21-15.92c-0.05-0.15-0.09-0.3-0.14-0.45h-2.62C63.76,36.68,63.99,37.53,64.19,38.35z"/>
		<path class="st0" d="M28.9,48.89c1.38-1.7,2.31-3.77,3.54-5.58c1.3-1.91,2.81-3.68,4.54-5.22c0.95-0.84,1.97-1.6,3.06-2.25h-4.31
			c-1.63,1.41-3.08,3-4.37,4.73c-1.61,2.14-3.44,4.76-3.98,7.43C27.21,48.8,28.27,49.66,28.9,48.89z"/>
	</g>
	<path class="st3" d="M72.31,40.29H24.58c-0.98,0-1.78-0.8-1.78-1.78V38.4c0-0.98,0.8-1.78,1.78-1.78h47.73
		c0.98,0,1.78,0.8,1.78,1.78v0.11C74.09,39.49,73.29,40.29,72.31,40.29z"/>
	<path class="st4" d="M72.7,38.17H24.19c-0.76,0-1.39-0.62-1.39-1.39l0,0c0-0.76,0.62-1.39,1.39-1.39H72.7
		c0.76,0,1.39,0.62,1.39,1.39l0,0C74.09,37.55,73.47,38.17,72.7,38.17z"/>
	<g>
		<g>
			<path class="st5" d="M75.46,16.07c-0.63,0-1.13-0.51-1.13-1.13v-4.76c0-0.35-0.29-0.64-0.64-0.64h-4.83
				c-0.63,0-1.13-0.51-1.13-1.13c0-0.63,0.51-1.13,1.13-1.13h4.83c1.6,0,2.91,1.3,2.91,2.9v4.76C76.6,15.56,76.09,16.07,75.46,16.07
				z"/>
		</g>
		<g>
			<path class="st5" d="M21.43,16.07c-0.63,0-1.13-0.51-1.13-1.13v-4.76c0-1.6,1.3-2.9,2.9-2.9h5.02c0.63,0,1.13,0.51,1.13,1.13
				c0,0.63-0.51,1.13-1.13,1.13H23.2c-0.35,0-0.64,0.29-0.64,0.64v4.76C22.57,15.56,22.06,16.07,21.43,16.07z"/>
		</g>
		<g>
			<path class="st5" d="M28.22,73.27H23.2c-1.6,0-2.9-1.3-2.9-2.91v-6.07c0-0.63,0.51-1.13,1.13-1.13s1.13,0.51,1.13,1.13v6.07
				c0,0.35,0.29,0.64,0.64,0.64h5.02c0.63,0,1.13,0.51,1.13,1.13C29.36,72.76,28.85,73.27,28.22,73.27z"/>
		</g>
		<g>
			<path class="st5" d="M73.69,73.27h-4.83c-0.63,0-1.13-0.51-1.13-1.13c0-0.63,0.51-1.13,1.13-1.13h4.83
				c0.35,0,0.64-0.29,0.64-0.64v-6.07c0-0.63,0.51-1.13,1.13-1.13c0.63,0,1.13,0.51,1.13,1.13v6.07
				C76.6,71.96,75.29,73.27,73.69,73.27z"/>
		</g>
	</g>
</g>
<rect x="71.76" y="30.75" class="st6" width="0.97" height="0.32"/>
</svg>
